<svg width="640" height="420" viewBox="0 0 640 420" fill="none" xmlns="http://www.w3.org/2000/svg">
  <rect width="640" height="420" rx="28" fill="#F8FAFC"/>
  <rect x="128" y="52" width="276" height="316" rx="24" fill="white" stroke="#BFDBFE" stroke-width="4"/>
  <rect x="168" y="98" width="164" height="16" rx="8" fill="#2563EB"/>
  <rect x="168" y="142" width="190" height="12" rx="6" fill="#CBD5E1"/>
  <rect x="168" y="174" width="156" height="12" rx="6" fill="#CBD5E1"/>
  <rect x="168" y="206" width="204" height="12" rx="6" fill="#CBD5E1"/>
  <rect x="168" y="248" width="26" height="26" rx="8" fill="#DCFCE7" stroke="#16A34A" stroke-width="3"/>
  <path d="M175 261L181 267L192 253" stroke="#16A34A" stroke-width="4" stroke-linecap="round" stroke-linejoin="round"/>
  <rect x="212" y="255" width="134" height="12" rx="6" fill="#CBD5E1"/>
  <circle cx="460" cy="210" r="78" fill="#EDE9FE"/>
  <path d="M420 218C428 190 447 176 476 176C504 176 522 193 526 218" stroke="#7C3AED" stroke-width="8" stroke-linecap="round"/>
  <circle cx="474" cy="158" r="22" fill="#7C3AED"/>
  <rect x="404" y="244" width="138" height="42" rx="21" fill="url(#g)"/>
  <defs>
    <linearGradient id="g" x1="404" y1="244" x2="542" y2="286" gradientUnits="userSpaceOnUse">
      <stop stop-color="#2563EB"/>
      <stop offset="1" stop-color="#06B6D4"/>
    </linearGradient>
  </defs>
</svg>
