<svg width="640" height="420" viewBox="0 0 640 420" fill="none" xmlns="http://www.w3.org/2000/svg">
  <rect width="640" height="420" rx="28" fill="#EFF6FF"/>
  <rect x="74" y="54" width="492" height="292" rx="24" fill="white" stroke="#BFDBFE" stroke-width="3"/>
  <rect x="112" y="96" width="110" height="70" rx="16" fill="#DBEAFE"/>
  <rect x="250" y="96" width="110" height="70" rx="16" fill="#EDE9FE"/>
  <rect x="388" y="96" width="110" height="70" rx="16" fill="#E0F2FE"/>
  <rect x="112" y="206" width="182" height="98" rx="18" fill="#F8FAFC" stroke="#E2E8F0"/>
  <rect x="340" y="206" width="158" height="98" rx="18" fill="#F8FAFC" stroke="#E2E8F0"/>
  <rect x="135" y="258" width="28" height="28" rx="8" fill="#2563EB"/>
  <rect x="178" y="236" width="28" height="50" rx="8" fill="#7C3AED"/>
  <rect x="221" y="218" width="28" height="68" rx="8" fill="#06B6D4"/>
  <circle cx="419" cy="255" r="34" fill="#DBEAFE"/>
  <path d="M419 221A34 34 0 0 1 453 255H419V221Z" fill="#2563EB"/>
  <path d="M419 255H453A34 34 0 0 1 386 263L419 255Z" fill="#16A34A"/>
  <rect x="126" y="116" width="70" height="12" rx="6" fill="#2563EB"/>
  <rect x="264" y="116" width="70" height="12" rx="6" fill="#7C3AED"/>
  <rect x="402" y="116" width="70" height="12" rx="6" fill="#06B6D4"/>
</svg>
